<svg xmlns="http://www.w3.org/2000/svg" viewBox="0 0 477.79 156.08"><defs><style>.cls-1{fill:#f9f7f2;opacity:0.3;}.cls-2{fill:#fff;}.cls-3{fill:#1c7bff;}.cls-4{fill:#0256aa;}.cls-5{fill:#ea8e75;}.cls-6{fill:#f7b293;}.cls-7{fill:#d5a28d;}.cls-8{fill:#6fb3f7;}.cls-9{fill:#f8b297;}</style></defs><g id="Layer_1" data-name="Layer 1"><path class="cls-1" d="M329.84,150a51.16,51.16,0,0,1-17-2.8H280.31l-28.41-1.44a126.87,126.87,0,0,1-15-1.95l-.13,0-65.11-21.73,13.85-43.89L171.62,43.66l54.64-21.41A89,89,0,0,1,255.78,17a55.56,55.56,0,0,1,5.56.25H403.5l-.18.11h38.12l1,.13a16.4,16.4,0,0,1,12.1,8.13,16.11,16.11,0,0,1,.61,14.51L429.27,98.9l12.41.06.16,0c9,1,15.26,8.4,15.3,17.88v14.56l-.17,1.1c-1.09,7.32-7.29,14.71-18.67,14.71H347.16A51.28,51.28,0,0,1,329.84,150Z"/><path class="cls-1" d="M441.5,101.88l-16.69-.09,27.66-62.85A13.19,13.19,0,0,0,452,27a13.44,13.44,0,0,0-9.93-6.67l-.8-.1H393.09l.18-.11H261.77l-.12.05s-15-2.08-34.35,4.76L175.48,44.74l.77,33.32-1,42.93,62.32,20A127.11,127.11,0,0,0,252,142.88l28.34,1.43h33a50.84,50.84,0,0,0,33.28,0H438.3c9.64,0,14.88-6.14,15.78-12.22l.14-.89V116.87C454.19,108.91,449,102.75,441.5,101.88Z"/><path class="cls-2" d="M363.51,26.89h-16.9a4.78,4.78,0,0,0-4.86,4.66V93.29c0,9-.8,11.82-1.14,12.62l-.06.13a7.39,7.39,0,0,1-3.52,3.82,13.63,13.63,0,0,1-7.13,1.89c-4.67,0-7.82-1.74-9.88-5.46-.41-1-1-3.67-1-10.17V32.44a7.46,7.46,0,0,0-.31-2.25,4.75,4.75,0,0,0-4-3.27l-.22,0H296.4l-.29.05c-1.75.28-3.8,1.77-3.8,5V90.9c0,12.44,1.34,21.28,4.11,27a30.9,30.9,0,0,0,13.2,14.31,41.33,41.33,0,0,0,36.85,2.62,36,36,0,0,0,12.65-9,31,31,0,0,0,7.34-12.69c1.37-4.69,2-12,2-22.23V32A5,5,0,0,0,363.51,26.89Z"/><path class="cls-2" d="M442.35,109.38l-.21,0H413.29l33.29-75.63a4.77,4.77,0,0,0-.12-4.37,5.07,5.07,0,0,0-3.7-2.43l-.24,0H385.75c-4.62,0-6.52,2.79-6.75,5.18l0,.17V48l0,.18c.08.83.81,5,6.88,5H410l-33.24,75-.07.27a5.06,5.06,0,0,0,.81,4.48c1.75,2.3,4.81,2.3,5.81,2.3h56.77c6.24,0,7.29-3.86,7.47-5l0-.27V116C447.6,111.58,444.77,109.66,442.35,109.38Z"/><path class="cls-2" d="M280.94,109.22H256.85V34.64c0-6.13-3.89-7.85-5.08-8.23l-.54-.18H236.67c-3.17.09-6.59,2.38-6.59,7.18v96l0,.15c.21,2.44,2.1,4.89,5.8,4.89l44.48.58a4.57,4.57,0,0,0,4.77-4.28V114.37C285.16,111.06,283,109.38,280.94,109.22Z"/><path class="cls-3" d="M156.45,82.89c0,21.65,6.84,39.2,15.24,39.19s15.19-17.56,15.17-39.22-6.84-39.2-15.24-39.2S156.43,61.23,156.45,82.89Z"/><polygon class="cls-3" points="146.96 48.11 171.62 43.66 171.69 122.08 147.01 117.68 146.96 48.11"/><ellipse class="cls-4" cx="146.99" cy="82.89" rx="13.49" ry="34.78"/><path class="cls-3" d="M130.86,82.58c0,14.49,4,26.24,9,26.24s9-11.76,9-26.26-4-26.24-9-26.23S130.85,68.08,130.86,82.58Z"/><polygon class="cls-3" points="27.11 57.08 139.06 56.98 138.98 108.82 27.15 100.97 27.11 57.08"/><ellipse class="cls-4" cx="27.13" cy="79.02" rx="10.05" ry="21.95"/><polygon class="cls-5" points="34.06 45.11 34.8 45.24 34.08 45.1 34.06 45.11"/><path class="cls-6" d="M105.41,77.64s11.62,16.92,11.5,25.22S112.57,117,100.31,113c0,0-9.7,9.57-22.34,2.81,0,0-10.08,11.87-18.13-1.41,0,0-11.23,12.51-18.25-4.34S52.44,83,56.91,84.61c0,0,9.57-9.58,18.38-1.54,0,0,7.42-10.24,17.24-4.35C92.92,78.36,99.14,91.27,105.41,77.64Z"/><path class="cls-7" d="M56.91,85.56S66.48,76,75.29,84c0,0,7.42-10.25,17.24-4.36.39-.35,6.61,12.56,12.88-1.08,0,0,11.16,16.26,11.48,24.72,0-.15,0-.3,0-.45.12-8.3-11.5-25.22-11.5-25.22-6.27,13.63-12.49.72-12.88,1.08-9.82-5.89-17.24,4.35-17.24,4.35-8.81-8-18.38,1.54-18.38,1.54C53.1,83.19,39.6,90.39,40,103,40.29,91,53.2,84.19,56.91,85.56Z"/><path class="cls-7" d="M59,89.58c0-5.61,1-7.34,1-7.34l-1,1.05V82.9l-2.1,1.71c1.27,4,1.27,24.89,1.27,24.89.64.83.83,0,.83,0C59,107.42,59,96.76,59,89.58Z"/><path class="cls-7" d="M75.29,83.07,74,82s1.7,6.55,1.28,25.53c0,0,.42.43.76,0,0,0,0-21.22,1-26.35Z"/><path class="cls-8" d="M87,59.18l-51.68.66c-.78,0-.52.55-.52.55a32.54,32.54,0,0,1,2.59,6h0a1.38,1.38,0,0,0,1,.63l45.36,1.75h0l.71,0a1.6,1.6,0,0,0,1.28-1.3h0a15.69,15.69,0,0,1,2.35-6.69h0C88.79,59.7,87.47,59.28,87,59.18Z"/><path class="cls-7" d="M105.41,77.64s-3.38,7.54-7.33,6a12,12,0,0,1-5.76-5.17s-3.81-1.54-5.41-1.51a14.22,14.22,0,0,1,1,1.18h0c1.11.48,2.68,1.79,4,5.34v0a54.92,54.92,0,0,1,3.1,8.67v0a87.9,87.9,0,0,1,3.21,11.73s.57.58.76-.25c0,0-3.88-17.69-5.61-22.44,0,0,4.93,10.14,12.08-1,0,0,9.29,13.34,11,19.69A75.67,75.67,0,0,0,105.41,77.64Z"/><path class="cls-7" d="M85.26,77.91A5.34,5.34,0,0,1,90,79.75c1.77,2.28,1-1.44,1-1.44l-4.49-1Z"/><path class="cls-4" d="M121,51.94s5.62-.85,5.62,5.05h-4.86A10.51,10.51,0,0,0,121,51.94Z"/><path class="cls-9" d="M118.57,49.24c-.51-.76-15.58-11-29.36-18.89S60.61,27.54,51.42,35a19.47,19.47,0,0,1-8.7,4.38l-3.46-.46c-.91,0-3.06.48-5.51,4.61h0L27.46,57.09l59-.11a56,56,0,0,0,5.24,2.34,18.55,18.55,0,0,0-4.32,7s-1.51,6.49,5.9,14.47,8.08,2,12.18-3.14h0L118.57,61C122.91,56.14,119.08,50,118.57,49.24Z"/><path class="cls-8" d="M142.62,61c-.92-1.84-1.69-2-1.87-2h-.89v0H125c-1.72,0-2.44.43-2.74.74L122,60h0a50.59,50.59,0,0,1-5.88,8.13h0s-1,1.18,1.42,1.21h0l27.63.34s.37-.06.38-.4A24.88,24.88,0,0,0,142.62,61Z"/><path class="cls-8" d="M172.73,46.39a2.71,2.71,0,0,0-2-.55h-.06l-16.22,2.86s-1.26.19-.42,1.15a.83.83,0,0,1,.13.16c2.32,2.74,4.27,6.83,5.7,11.87h0s.2.72,1.48.72h18.3c1.68,0,2-.77,2-1.27C180,52.44,175,48,172.73,46.39Z"/><path class="cls-7" d="M121.45,52a7.57,7.57,0,0,0-2.32-3.39c-2-1.71-15.39-10.72-28.42-18.35a32.8,32.8,0,0,0-8.64-3.69,36.45,36.45,0,0,0-24.48,4.29s13.15-6.46,25.62-3.12a29,29,0,0,1,5.93,2.57C102.92,38.22,118,48.43,118.5,49.2s4.34,6.89,0,11.74-16.6,21.19-16.6,21.19S98.07,89,90.16,75c.34.2-5.74-7.79,2.3-15.83.29-.29.06-.5.06-.5C82.62,54.38,71.8,43,71.48,43c0,0-.06-.06-.1-.07-.22-.06-.63.17-.63.17l-.84.47C79.48,54.4,88.32,58.15,91,59.1h0c-4.32,5.48-4,9.13-4,9.13a12.76,12.76,0,0,0,2.37,7.89c8.37,14.85,12.42,7.56,12.42,7.56l2.67-3.54h1l15.11-19.79A9.53,9.53,0,0,0,121.45,52Z"/></g></svg>