<?xml version="1.0" encoding="UTF-8"?>
<svg id="interactive2" xmlns="http://www.w3.org/2000/svg" viewBox="0 0 530 530">
  <defs>
    <style>
      .cls-1, .cls-2, .cls-3 {
        fill: #fff;
      }

      .cls-2, .cls-4, .cls-5, .cls-6 {
        opacity: .4;
      }

      .cls-3 {
        opacity: .52;
      }

      .cls-7 {
        fill: #303030;
      }

      .cls-4 {
        fill: #f4738f;
      }

      .cls-8, .cls-6 {
        fill: #f9f7f2;
      }
    </style>
  </defs>
  <circle class="cls-7" cx="262.91" cy="266.27" r="252.68"/>
  <g id="z">
    <g id="light-z">
      <path id="outline" class="cls-6" d="m371,347.32c-1.41,0-2.67,0-3.78-.03-19.75-.3-35.78-.9-47.65-1.77-23.62-1.75-27.91-4.24-28.59-9.15l-.05-.34v-.35c0-2.27.36-2.6,6.33-8.18,3.06-2.86,7.49-6.97,12.97-12.04,10.1-9.34,24.34-22.47,42.34-39.03l25.19-43.85c1.13-1.91,2.32-3.81,3.57-5.66h-20.17c-6.74,0-11.89,1.59-15.31,4.73-3.31,3.05-5.26,9.34-5.66,18.18l-.18,3.97-3.91.72c-1.21.22-2.45.34-3.67.34s-2.46-.11-3.67-.34l-4.09-.76v-43.77h100.25c10.99-9.76,65.39-54.03,65.39-54.03,0,0-44.53,172.33-46.72,180.55-.2,1.24-.8,2.38-1.74,3.32-1.42,1.43-4.76,4.76-38.46,6.54-16.42.87-32.25.93-32.39.93Z"/>
      <path class="cls-6" d="m438.62,335.95c.09-.47,51.68-179.98,51.68-179.98,0,0-194.83,179.77-194.41,180.07,0,0,0,0,0,0,.64,4.61,39.6,6.12,71.37,6.61,16.57.26,71.37-1.42,71.36-6.71Z"/>
      <path class="cls-6" d="m438.62,335.95c0,3.51-29.76,6.73-67.96,6.73s-74.76-2.5-74.76-6.64c0-.76,32.05-5.73,70.25-5.73s72.47,3.16,72.47,5.64Z"/>
      <path class="cls-1" d="m423.93,336.5h-99.51c-.46-1.5-.75-2.94-.87-4.33-.12-1.38-.12-2.83,0-4.33l32.02,1.73h36.86c6,0,10.84-1.21,14.54-3.63,3.69-2.42,6.46-5.59,8.31-9.52,1.84-3.92,2.88-8.19,3.11-12.81,1.84-.35,3.69-.35,5.54,0v32.88Zm-32.02-114.22l31.67,1.73c-3.92,2.31-7.3,5.71-10.12,10.21-2.83,4.5-5.34,8.6-7.53,12.29l-40.84,71.3c-1.5,2.54-2.92,4.76-4.24,6.66-1.33,1.9-3.09,3.61-5.28,5.11l-32.02-1.73c2.31-1.04,4.59-2.86,6.84-5.45,2.25-2.6,4.38-5.48,6.4-8.65,2.02-3.17,3.72-5.97,5.11-8.39l40.15-69.92c1.5-2.54,3.09-4.99,4.76-7.35,1.67-2.36,3.37-4.3,5.1-5.8Zm-62.3-6.92h93.1c.46,1.5.75,2.94.87,4.33.11,1.38.11,2.83,0,4.33l-31.67-1.73h-30.8c-8.08,0-14.31,2.02-18.69,6.06-4.39,4.04-6.81,11.25-7.27,21.63-1.85.35-3.69.35-5.54,0v-34.61Z"/>
    </g>
    <g id="toggle-z">
      <rect class="cls-4" x="350.87" y="378.84" width="58.01" height="34.07" rx="17.04" ry="17.04" transform="translate(775.76 16) rotate(90)"/>
      <circle class="cls-8" cx="379.88" cy="407.92" r="14.7"/>
    </g>
  </g>
  <g id="l">
    <g id="light-l">
      <g id="outline-2" data-name="outline" class="cls-5">
        <path class="cls-8" d="m213.37,327.97c-2.63-2.84-6.33-6.81-10.87-11.67v-20.95l-4.07-.77c-1.23-.23-2.47-.35-3.7-.35s-2.48.12-3.7.35l-3.85.73s-.22,4.21-.23,4.35c-10.16-10.86-22.1-23.58-34.63-36.95v-11.68c0-4.95.14-10.07.42-15.2.19-3.45.46-6.83.78-10.08h11.18l.83-3.97c.61-2.89.6-5.75-.01-8.51l-.9-4.03-4.12.11c-4.15.12-8.52.2-12.99.26-4.32.05-8.64.08-13.18.08s-8.68-.03-13-.08c-4.46-.06-8.89-.14-13.17-.26l-4.12-.11-.4,1.79c-12.58-11.86-64.75-61.77-64.75-61.77,0,0,43.94,175.56,47.31,187.6l.02.16c.63,4.71,4.43,7.09,25.27,8.7,10.11.78,23.94,1.33,41.12,1.61.94.01,2.02.02,3.21.02.13,0,13.76-.06,27.95-.85,29.24-1.62,32.32-4.71,33.63-6.03,1.16-1.16,1.8-2.66,1.79-4.21,0-2.04-.11-2.15-5.82-8.31Z"/>
      </g>
      <path class="cls-3" d="m214.21,336.59c.08-.43-175.32-187.33-175.32-187.33,0,0,51.96,187.14,52.32,187.41,0,0,0,0,0,0,.55,4.16,34.12,5.53,61.51,5.98,14.28.23,61.51-1.29,61.5-6.06Z"/>
      <path class="cls-6" d="m214.21,336.59c0,3.17-25.65,6.09-58.57,6.09s-64.43-2.26-64.43-6c0-.68,27.62-5.18,60.54-5.18s62.46,2.86,62.46,5.09Z"/>
      <path class="cls-1" d="m108.05,336.5c-.46-2.19-.46-4.33,0-6.4h11.59c.58-4.73,1.01-9.66,1.3-14.8.29-5.13.43-10.3.43-15.49v-48.46c0-5.19-.15-10.35-.43-15.49-.29-5.13-.72-10.06-1.3-14.8h-11.59c-.46-2.19-.46-4.33,0-6.4,4.04.12,8.45.2,13.24.26,4.79.06,9.14.09,13.07.09s8.45-.03,13.24-.09c4.79-.06,9.14-.14,13.07-.26.46,2.08.46,4.21,0,6.4h-11.59c-.58,4.73-1.01,9.67-1.3,14.8-.29,5.13-.43,10.3-.43,15.49v48.46c0,5.19.14,10.1.43,14.71.29,4.62.72,9.52,1.3,14.71h16.96c9,0,15.46-2.74,19.38-8.22,3.92-5.48,6.11-12.55,6.58-21.2,1.84-.35,3.69-.35,5.54,0v36.34h-76.23c-4.79,0-9.2.11-13.24.35Z"/>
    </g>
    <g id="toggle-l">
      <rect class="cls-4" x="126.49" y="378.66" width="58.62" height="34.43" rx="17.22" ry="17.22" transform="translate(551.68 240.07) rotate(90)"/>
      <circle class="cls-8" cx="155.81" cy="408.05" r="14.85"/>
    </g>
  </g>
  <g id="u">
    <g id="light-u">
      <path id="outline-3" data-name="outline" class="cls-2" d="m262.12,347.86c-1.38,0-2.64,0-3.72-.02-20.06-.27-36.38-.82-48.49-1.62-22.77-1.49-27.41-3.53-28.78-7.49-.88-2.17.17-4.18.69-5.15.32-.61.8-1.52,1.44-2.7,1.25-2.32,3.08-5.7,5.43-10,4.56-8.35,11.02-20.15,18.76-34.23v-34.23c0-4.96-.14-10.08-.42-15.21-.19-3.45-.46-6.83-.78-10.07h-11.16l-.85-3.95c-.62-2.9-.62-5.78.01-8.56l.91-4,4.1.11c4.15.11,8.58.2,13.16.26,5.04.05,9.3.08,13.01.08s8.13-.03,13.19-.08c3.61-.05,7.12-.11,10.46-.19,1.61-3.25,102.29-181.28,102.54-181.74,0,0-14.81,296.54-15.49,307.54v.09c0,1.53-.61,3-1.74,4.14-1.45,1.46-4.48,4.5-38.99,6.15-16.82.8-33.1.87-33.25.87Z"/>
      <path class="cls-6" d="m331.15,336.55c.09-.43,20.45-306.96,20.45-306.96,0,0-166.2,306.77-165.78,307.04,0,0,0,0,0,0,.65,4.19,40.32,5.57,72.67,6.02,16.87.24,72.67-1.3,72.66-6.1Z"/>
      <path class="cls-6" d="m331.15,336.55c0,3.19-30.31,6.13-69.2,6.13s-76.13-2.28-76.13-6.04c0-.69,32.64-5.21,71.53-5.21s73.8,2.88,73.8,5.13Z"/>
      <path class="cls-1" d="m263.69,339.65c-16.5,0-29.16-3.03-37.99-9.08-8.83-6.06-13.24-15.14-13.24-27.26v-51.05c0-5.19-.15-10.35-.43-15.49-.29-5.13-.72-10.06-1.3-14.8h-11.59c-.46-2.19-.46-4.33,0-6.4,4.04.12,8.45.2,13.24.26,4.79.06,9.14.09,13.07.09s8.45-.03,13.24-.09c4.79-.06,9.14-.14,13.07-.26.46,2.08.46,4.21,0,6.4h-11.59c-.58,4.73-1.01,9.67-1.3,14.8-.29,5.13-.43,10.3-.43,15.49v48.28c0,10.04,2.1,17.71,6.32,23.02,4.21,5.31,11.39,7.96,21.55,7.96,9.23,0,16.5-2.86,21.8-8.57,5.31-5.71,7.96-13.76,7.96-24.14v-46.55c0-5.19-.2-10.04-.61-14.54-.41-4.5-1.07-9.75-1.99-15.75h-15.06c-.46-2.19-.46-4.33,0-6.4,4.85.12,9.17.2,12.98.26,3.81.06,6.81.09,9,.09,1.96,0,4.47-.03,7.53-.09,3.06-.06,6.55-.14,10.47-.26.46,2.08.46,4.21,0,6.4h-11.59c-.92,6-1.59,11.25-1.99,15.75-.41,4.5-.61,9.34-.61,14.54v49.32c0,11.88-3.52,21.2-10.56,27.95-7.04,6.75-17.02,10.12-29.94,10.12Z"/>
    </g>
    <g id="toggle-u">
      <rect class="cls-4" x="241.86" y="379.22" width="60.57" height="35.58" rx="17.79" ry="17.79" transform="translate(669.16 124.86) rotate(90)"/>
      <circle class="cls-8" cx="272.15" cy="409.59" r="15.34"/>
    </g>
  </g>
</svg>