<?xml version="1.0" encoding="UTF-8"?>
<svg id="interactive2" xmlns="http://www.w3.org/2000/svg" viewBox="0 0 530 530">
  <defs>
    <style>
      .cls-1, .cls-2, .cls-3 {
        fill: #fff;
      }

      .cls-2, .cls-4, .cls-5, .cls-6 {
        opacity: .4;
      }

      .cls-3 {
        opacity: .52;
      }

      .cls-7 {
        fill: #303030;
      }

      .cls-4 {
        fill: #f4738f;
      }

      .cls-8, .cls-6 {
        fill: #f9f7f2;
      }
    </style>
  </defs>
  <circle class="cls-7" cx="262.91" cy="266.27" r="252.68"/>
  <g id="z">
    <g id="light-z">
      <path id="outline" class="cls-6" d="m371,344.32c-1.39,0-2.64,0-3.73-.03-19.69-.3-35.66-.89-47.48-1.77-23.27-1.72-25.5-4.09-25.84-6.57l-.02-.14v-.14q0-.96,5.38-5.99c3.06-2.86,7.48-6.96,12.96-12.03,10.19-9.42,24.54-22.66,42.68-39.34l25.42-44.25c1.5-2.55,3.14-5.07,4.86-7.52.66-.94,1.34-1.82,2.02-2.64h-26.09c-7.51,0-13.34,1.86-17.34,5.52-3.96,3.65-6.19,10.47-6.62,20.26l-.07,1.59-1.56.29c-1.04.19-2.09.29-3.13.29s-2.09-.1-3.13-.29l-1.64-.3v-38.27h96.58l.39,1.27c.66-.61,65.68-58.3,65.68-58.3,0,0-48.14,174.13-49.66,179.95-.06.52-.29,1.17-.92,1.81-6.3,6.31-68.1,6.59-68.72,6.59Z"/>
      <path class="cls-6" d="m438.62,335.95c.09-.47,51.68-179.98,51.68-179.98,0,0-194.83,179.77-194.41,180.07,0,0,0,0,0,0,.64,4.61,39.6,6.12,71.37,6.61,16.57.26,71.37-1.42,71.36-6.71Z"/>
      <path class="cls-6" d="m438.62,335.95c0,3.51-29.76,6.73-67.96,6.73s-74.76-2.5-74.76-6.64c0-.76,32.05-5.73,70.25-5.73s72.47,3.16,72.47,5.64Z"/>
      <path class="cls-1" d="m423.93,336.5h-99.51c-.46-1.5-.75-2.94-.87-4.33-.12-1.38-.12-2.83,0-4.33l32.02,1.73h36.86c6,0,10.84-1.21,14.54-3.63,3.69-2.42,6.46-5.59,8.31-9.52,1.84-3.92,2.88-8.19,3.11-12.81,1.84-.35,3.69-.35,5.54,0v32.88Zm-32.02-114.22l31.67,1.73c-3.92,2.31-7.3,5.71-10.12,10.21-2.83,4.5-5.34,8.6-7.53,12.29l-40.84,71.3c-1.5,2.54-2.92,4.76-4.24,6.66-1.33,1.9-3.09,3.61-5.28,5.11l-32.02-1.73c2.31-1.04,4.59-2.86,6.84-5.45,2.25-2.6,4.38-5.48,6.4-8.65,2.02-3.17,3.72-5.97,5.11-8.39l40.15-69.92c1.5-2.54,3.09-4.99,4.76-7.35,1.67-2.36,3.37-4.3,5.1-5.8Zm-62.3-6.92h93.1c.46,1.5.75,2.94.87,4.33.11,1.38.11,2.83,0,4.33l-31.67-1.73h-30.8c-8.08,0-14.31,2.02-18.69,6.06-4.39,4.04-6.81,11.25-7.27,21.63-1.85.35-3.69.35-5.54,0v-34.61Z"/>
    </g>
    <g id="toggle-z">
      <rect class="cls-4" x="350.87" y="378.84" width="58.01" height="34.07" rx="17.04" ry="17.04" transform="translate(775.76 16) rotate(90)"/>
      <circle class="cls-8" cx="379.88" cy="407.92" r="14.7"/>
    </g>
  </g>
  <g id="l">
    <g id="light-l">
      <g id="outline-2" data-name="outline" class="cls-5">
        <path class="cls-8" d="m211.17,330.01c-2.78-3-6.77-7.28-11.67-12.52v-19.65l-1.63-.31c-1.04-.2-2.1-.3-3.15-.3s-2.1.1-3.14.3l-1.54.29-.08,1.57c-.13,2.45-.41,4.79-.83,7-11.24-12.01-25.14-26.83-39.82-42.49v-12.87c0-5,.14-10.17.43-15.37.25-4.47.61-8.8,1.08-12.91h11.45l.33-1.59c.52-2.46.52-4.9,0-7.24l-.36-1.61-1.65.05c-4.18.12-8.57.2-13.04.26-4.32.05-8.65.08-13.22.08s-8.72-.03-13.04-.08c-4.46-.06-8.91-.14-13.21-.26l-1.65-.04-.36,1.61c-.25,1.14-.39,2.31-.39,3.49-.6-.64-66.79-68.14-66.79-68.14,0,0,49.61,185.13,50.35,187.35h-.05c.31,2.33,2.27,4.55,22.53,6.11,10.05.78,23.82,1.32,40.93,1.61.92.01,1.99.02,3.16.02.53,0,53.73-.26,59.45-6,.76-.76.92-1.56.92-2.1q0-.86-5.02-6.27Zm-100.47-107.25h7.14c.31,2.72.57,5.54.79,8.45-2.66-2.83-5.31-5.66-7.93-8.45Z"/>
      </g>
      <path class="cls-3" d="m214.21,336.59c.08-.43-175.32-187.33-175.32-187.33,0,0,51.96,187.14,52.32,187.41,0,0,0,0,0,0,.55,4.16,34.12,5.53,61.51,5.98,14.28.23,61.51-1.29,61.5-6.06Z"/>
      <path class="cls-6" d="m214.21,336.59c0,3.17-25.65,6.09-58.57,6.09s-64.43-2.26-64.43-6c0-.68,27.62-5.18,60.54-5.18s62.46,2.86,62.46,5.09Z"/>
      <path class="cls-1" d="m108.05,336.5c-.46-2.19-.46-4.33,0-6.4h11.59c.58-4.73,1.01-9.66,1.3-14.8.29-5.13.43-10.3.43-15.49v-48.46c0-5.19-.15-10.35-.43-15.49-.29-5.13-.72-10.06-1.3-14.8h-11.59c-.46-2.19-.46-4.33,0-6.4,4.04.12,8.45.2,13.24.26,4.79.06,9.14.09,13.07.09s8.45-.03,13.24-.09c4.79-.06,9.14-.14,13.07-.26.46,2.08.46,4.21,0,6.4h-11.59c-.58,4.73-1.01,9.67-1.3,14.8-.29,5.13-.43,10.3-.43,15.49v48.46c0,5.19.14,10.1.43,14.71.29,4.62.72,9.52,1.3,14.71h16.96c9,0,15.46-2.74,19.38-8.22,3.92-5.48,6.11-12.55,6.58-21.2,1.84-.35,3.69-.35,5.54,0v36.34h-76.23c-4.79,0-9.2.11-13.24.35Z"/>
    </g>
    <g id="toggle-l">
      <rect class="cls-4" x="126.49" y="378.66" width="58.62" height="34.43" rx="17.22" ry="17.22" transform="translate(551.68 240.07) rotate(90)"/>
      <circle class="cls-8" cx="155.81" cy="408.05" r="14.85"/>
    </g>
  </g>
  <g id="u">
    <g id="light-u">
      <path id="outline-3" data-name="outline" class="cls-2" d="m262.12,344.86c-1.37,0-2.61,0-3.68-.02-20.01-.27-36.27-.82-48.33-1.61-21.91-1.44-25.46-3.37-26.17-5.56-.41-.9.14-1.94.54-2.7.32-.61.79-1.5,1.42-2.67,1.24-2.31,3.08-5.69,5.42-9.98,4.63-8.48,11.23-20.52,19.13-34.89v-35c0-5.01-.14-10.18-.43-15.37-.25-4.47-.62-8.81-1.08-12.91h-11.43l-.34-1.58c-.53-2.47-.53-4.91,0-7.26l.36-1.6,1.64.04c4.2.12,8.64.2,13.2.26,5.11.05,9.38.08,13.04.08s8.11-.03,13.22-.08c4.31-.05,8.45-.14,12.32-.24-.07-1.29,100.64-184.17,100.64-184.17,0,.06-18.28,303.79-18.5,307.12h.01c0,.52-.15,1.28-.87,2.01-5.84,5.87-69.48,6.13-70.12,6.13Zm-20.22-120.71c-.27,2.38-.5,4.83-.7,7.35l4.04-7.35h-3.34Z"/>
      <path class="cls-6" d="m331.15,336.55c.09-.43,20.45-306.96,20.45-306.96,0,0-166.2,306.77-165.78,307.04,0,0,0,0,0,0,.65,4.19,40.32,5.57,72.67,6.02,16.87.24,72.67-1.3,72.66-6.1Z"/>
      <path class="cls-6" d="m331.15,336.55c0,3.19-30.31,6.13-69.2,6.13s-76.13-2.28-76.13-6.04c0-.69,32.64-5.21,71.53-5.21s73.8,2.88,73.8,5.13Z"/>
      <path class="cls-1" d="m263.69,339.65c-16.5,0-29.16-3.03-37.99-9.08-8.83-6.06-13.24-15.14-13.24-27.26v-51.05c0-5.19-.15-10.35-.43-15.49-.29-5.13-.72-10.06-1.3-14.8h-11.59c-.46-2.19-.46-4.33,0-6.4,4.04.12,8.45.2,13.24.26,4.79.06,9.14.09,13.07.09s8.45-.03,13.24-.09c4.79-.06,9.14-.14,13.07-.26.46,2.08.46,4.21,0,6.4h-11.59c-.58,4.73-1.01,9.67-1.3,14.8-.29,5.13-.43,10.3-.43,15.49v48.28c0,10.04,2.1,17.71,6.32,23.02,4.21,5.31,11.39,7.96,21.55,7.96,9.23,0,16.5-2.86,21.8-8.57,5.31-5.71,7.96-13.76,7.96-24.14v-46.55c0-5.19-.2-10.04-.61-14.54-.41-4.5-1.07-9.75-1.99-15.75h-15.06c-.46-2.19-.46-4.33,0-6.4,4.85.12,9.17.2,12.98.26,3.81.06,6.81.09,9,.09,1.96,0,4.47-.03,7.53-.09,3.06-.06,6.55-.14,10.47-.26.46,2.08.46,4.21,0,6.4h-11.59c-.92,6-1.59,11.25-1.99,15.75-.41,4.5-.61,9.34-.61,14.54v49.32c0,11.88-3.52,21.2-10.56,27.95-7.04,6.75-17.02,10.12-29.94,10.12Z"/>
    </g>
    <g id="toggle-u">
      <rect class="cls-4" x="241.86" y="379.22" width="60.57" height="35.58" rx="17.79" ry="17.79" transform="translate(669.16 124.86) rotate(90)"/>
      <circle class="cls-8" cx="272.15" cy="409.59" r="15.34"/>
    </g>
  </g>
</svg>