<?xml version="1.0" encoding="UTF-8"?>
<svg id="Layer_1" data-name="Layer 1" xmlns="http://www.w3.org/2000/svg" viewBox="0 0 581.66 581.66">
  <defs>
    <style>
      .cls-1 {
        fill: #fff;
      }

      .cls-2 {
        fill: #6fb3f7;
      }

      .cls-3 {
        fill: #1c7bff;
      }

      .cls-4 {
        fill: #0256aa;
      }

      .cls-5 {
        fill: #303030;
      }

      .cls-6 {
        opacity: .3;
      }

      .cls-7, .cls-8, .cls-9 {
        fill: #f9f7f2;
      }

      .cls-10 {
        fill: #f7b293;
      }

      .cls-8 {
        opacity: .2;
      }

      .cls-9 {
        opacity: .4;
      }

      .cls-11 {
        fill: #f8b297;
      }

      .cls-12 {
        fill: #ea8e75;
      }

      .cls-13 {
        fill: #d5a28d;
      }
    </style>
  </defs>
  <circle class="cls-5" cx="287.55" cy="288.15" r="252.68"/>
  <g>
    <g class="cls-6">
      <path class="cls-7" d="m165.41,339.58l.03.32c.36,4.19,3.66,8.69,10.02,8.7l6.54.08c1.92,1.45,5.94,3.31,15.8,5.22.49.09.99.19,1.49.28,22.04,4.03,60.41,6.44,102.64,6.44,17.17,0,33.76-.4,49.28-1.18,2.65-.13,5.26-.28,7.8-.43,3.36-.2,6.68-.43,9.89-.67,7.96-.6,15.29-1.3,21.76-2.09,5.21-.64,9.89-1.33,13.9-2.07.51-.09,1.01-.19,1.5-.28,6.96-1.35,11.75-2.8,14.58-4.43h3.53c7.94,0,11.44-4.5,12.06-8.7l.08-.55v-17.06c-.02-6.92-4.57-10.55-9.06-11.08l-.43-.05h-30.71l38.68-87.89c1.18-2.68,1.08-5.6-.27-8.01-2.01-3.58-5.65-4.32-6.71-4.46l-.49-.07h-69.34c-7.15,0-10.78,4.53-11.2,9.01l-.04.36v19.48l.04.38c.41,4.03,3.63,8.74,11.36,8.74h24.8l-20.25,45.67-22.73-17.01v-57.36c0-5.73-4.6-9.2-9.07-9.25h-20.58c-4.83,0-8.66,3.66-8.92,8.53v.19s0,29.01,0,29.01l-21.71-16.25v-11.72c0-1.36-.17-2.59-.5-3.61-1.21-3.98-4.72-5.77-7.36-6.1l-.46-.06h-20.38l-66.04-49.44c-.18-1.55-.7-2.93-1.55-4.11-.49-.67-1.09-1.27-1.8-1.8l-13.75-13.24c-1.24-1.57-3.65-3.33-8.24-3.33-1.03,0-2.13.09-3.29.26l-3.1-4.28c.67-1,.95-1.96,1.05-2.73.2-1.45-.13-2.74-.59-3.75.58-1.4.68-2.53.7-2.98.18-2.78-.32-16.74-1.53-29.22-.48-4.41-1.35-7.14-1.99-8.65l-.05-.12c-1.94-4.09-6.69-11.62-16.62-16.18h0c-2.09-.99-4.23-1.8-6.36-2.38-2.47-.67-4.4-1.61-5.75-2.78l-1.25-2.33-.1-.15c-.91-1.3-2.86-2.85-6.97-2.85-.53,0-1.1.03-1.68.08h-.12s-11.28,1.97-11.28,1.97c-1.27-.98-3.18-1.79-6.02-1.79-4.87,0-11.18,2.47-16.89,6.61-4.38,3.17-7.96,6.98-10.08,10.73-2.49,4.41-2.76,8.39-.77,11.24l4.33,6.98c-1.29,1.21-2.44,2.64-3.43,4.26-3.08,5.03-3.75,9.39-2,12.96,1.52,3.09,4.45,4.69,6.81,5.52-.7,3.12-.34,5.88,1.08,8.22,2.08,3.43,5.83,4.85,8.28,5.43,2.06,8.48,8.75,12.55,13.33,13.93,2.92,7.72,7.47,9.4,10.88,9.4.66,0,1.33-.06,2.02-.19l7.6,12.23c-3.14,6.08-2.25,9.89-.77,12.11l8.29,17.19c.27.83.66,1.59,1.14,2.27.83,1.15,2.32,2.55,4.92,3.31l36,102.32v33.22Z"/>
    </g>
    <g>
      <path class="cls-9" d="m421.29,344.16c.15-.95-.93-2-.93-2l-240.72-180.21-48.83,37.02,50.75,144.22s.29.55.99,1.15c0,0,0,0,0,0,0,7.33,53.45,13.27,119.38,13.27s119.38-5.94,119.38-13.27c0-.06-.01-.13-.02-.19Z"/>
      <g>
        <g>
          <path class="cls-3" d="m146.35,168.92c-14.92,10.81-23.62,24.27-19.43,30.05,4.19,5.79,19.69,1.72,34.61-9.09,14.92-10.81,23.62-24.27,19.43-30.05-4.19-5.79-19.69-1.72-34.61,9.09Z"/>
          <polygon class="cls-3" points="165.6 145.03 180.96 159.82 126.92 198.97 117.65 179.76 165.6 145.03"/>
          <path class="cls-4" d="m134.89,153.1c-13.24,9.59-20.96,21.53-17.24,26.66,3.72,5.13,17.47,1.52,30.7-8.07,13.24-9.59,20.96-21.53,17.24-26.66-3.72-5.13-17.47-1.52-30.7,8.07Z"/>
          <path class="cls-3" d="m133.8,151.12c-9.99,7.24-16.08,15.88-13.6,19.3,2.48,3.42,12.59.33,22.58-6.9,9.99-7.24,16.08-15.88,13.6-19.3-2.48-3.42-12.59-.33-22.58,6.9Z"/>
          <polygon class="cls-3" points="99.66 66.86 155.54 144.01 119.76 169.8 69.41 88.78 99.66 66.86"/>
          <path class="cls-4" d="m79.52,70.89c-8.35,6.05-12.88,14.06-10.11,17.88,2.77,3.83,11.79,2.02,20.14-4.03,8.35-6.05,12.88-14.06,10.11-17.88-2.77-3.83-11.79-2.02-20.14,4.03Z"/>
          <polygon class="cls-12" points="111.37 65.69 111.65 66.26 111.39 65.69 111.37 65.69"/>
        </g>
        <path class="cls-10" d="m124.52,131.1s-5.87,16.46-11.66,20.51c-5.79,4.05-11.94,4.07-15.23-6.42,0,0-11.44-1.92-13.08-14.01,0,0-13.22-1.03-8.07-13.2,0,0-14.23-1.51-6.11-14.75,8.12-13.24,24.07-6.01,25.16-2.1,0,0,11.38,1.83,10.22,11.91,0,0,10.77,0,11.6,9.72.44.09-5.36,10.82,7.16,8.34Z"/>
        <path class="cls-13" d="m94.87,101.61s11.38,1.83,10.22,11.91c0,0,10.77,0,11.6,9.71.44.09-5.36,10.82,7.16,8.34,0,0-5.64,15.8-11.31,20.24.1-.07.21-.14.31-.21,5.79-4.05,11.66-20.51,11.66-20.51-12.53,2.48-6.73-8.25-7.16-8.34-.84-9.71-11.6-9.71-11.6-9.71,1.15-10.08-10.22-11.91-10.22-11.91-.92-3.33-12.62-9.05-21.08-2.52,8.4-5.76,19.53-.25,20.42,3Z"/>
        <path class="cls-13" d="m93.13,105.05c3.88-2.79,5.57-2.96,5.57-2.96l-1.22-.16c.17-.12.27-.19.27-.19l-2.22-.6c-2.09,2.85-16.53,13.29-16.53,13.29-.25.85.41.57.41.57,1.41-1.07,8.77-6.37,13.73-9.94Z"/>
        <path class="cls-13" d="m105.75,113.05l.08-1.44s-3.67,4.44-16.97,13.61c0,0-.08.51.38.53,0,0,14.63-10.59,18.66-12.47l-2.15-.23Z"/>
        <path class="cls-2" d="m128.09,109.23l-26.23-35.31c-.39-.53-.64-.08-.64-.08-.53,1.2-1.5,2.94-2.82,4.76h0s-.24.56.09,1.04l21.41,32.15h0l.33.5c.28.28.75.52,1.53.24,0,0,0,0,0,0,1.22-.71,3.16-1.53,5.78-1.71,0,0,0,0,.01,0,1.04-.12.67-1.23.53-1.58Z"/>
        <path class="cls-13" d="m124.52,131.1s-6.88,1.44-7.76-2.09c-.87-3.52.69-6.54.69-6.54,0,0-.84-3.4-1.66-4.49,0,0-.08.44-.32,1.26,0,0,0,0,0,.01.22,1,.11,2.74-1.66,5.44,0,0,0,0-.01.02-.94,1.72-2.35,3.84-4.43,6.46,0,0-.01.01-.02.02-1.69,2.45-3.82,5.16-6.49,8.06,0,0-.11.68.56.4,0,0,10.26-11.5,12.67-15.06,0,0-4.53,8.46,6.75,7.81,0,0-4.57,13.05-8.07,17.43,0,0,5.81-7.06,9.75-18.75Z"/>
        <path class="cls-13" d="m114.29,117.35s1.75,1.8,1.06,4.15,1.49-.04,1.49-.04l-1.56-3.58-.98-.52Z"/>
        <path class="cls-4" d="m150,129.03s3.38,3.45-.68,6.39l-2.42-3.35s2.24-1.29,3.11-3.04Z"/>
        <path class="cls-11" d="m150.66,126.02c.27-.73-.2-16.21-1.61-29.67-1.42-13.45-12.32-21.12-22.01-23.77-3.64-.99-5.92-2.42-7.36-3.81l-1.4-2.61c-.45-.64-1.86-1.87-5.93-1.5,0,0,0,0,0,0l-12.68,2.21,29.63,40.85s.7,4.16,1,4.77c0,0-3.91-.64-6.97.51,0,0-5.23,2.2-7.04,11.28-1.81,9.08,2.62,6.59,8.24,6.83,0,0,0,0,0,0l18.04.77c5.51.57,7.83-5.12,8.1-5.86Z"/>
        <path class="cls-2" d="m154.58,148.45c.81-1.56.53-2.16.45-2.29l-.45-.6h0s-7.43-10.29-7.43-10.29c-.86-1.19-1.51-1.47-1.87-1.52-.1,0-.21.02-.33.03h0c-1.93.15-6.06.41-8.54,0h0s-1.33-.12-.13,1.59c0,0,0,0,0,0l13.54,19.23s.22.22.47.06c2.05-1.91,3.46-4.47,4.3-6.2Z"/>
        <path class="cls-2" d="m179.63,161.95c.01-.95-.48-1.52-.62-1.66l-.04-.04h0s-10.06-9.76-10.06-9.76c0,0-.76-.78-1,.29-.02.07-.03.13-.04.17-.74,2.97-2.58,6.35-5.34,9.85h0s-.4.5.24,1.38l9.13,12.62c.84,1.16,1.51.96,1.85.72,5.33-5.55,5.9-11.23,5.88-13.57Z"/>
        <path class="cls-13" d="m150.2,129.38c1.19-1.76,1.18-3.29,1.18-3.29.18-2.24-.28-15.96-1.51-28.75-.45-4.14-1.24-6.57-1.77-7.8-1.71-3.59-6.02-10.55-15.16-14.74,0,0,11.01,5.85,14.92,16.11.57,1.67.98,3.46,1.18,5.37,1.42,13.45,1.89,28.93,1.61,29.67-.27.73-2.59,6.43-8.1,5.86s-22.89-.88-22.89-.88c0,0-6.66.8-.93-11.66.03.33,2.51-7.84,12.06-6.31.35.06.38-.2.38-.2-1.99-8.95.44-22.07.32-22.33-.02-.04,0-.07,0-.1-.07-.18-.43-.35-.43-.35l-.75-.35c-2.71,12.02-.89,19.98-.21,22.31h0c-5.93-.25-8.27,1.81-8.27,1.81-3.24,2.07-4.26,5.57-4.26,5.57-6.07,13.18.98,12.34.98,12.34,0,0,1.5.03,3.77.08l.5.69,21.18.55s3.61.02,6.18-3.59Z"/>
      </g>
      <ellipse class="cls-8" cx="301.93" cy="344.35" rx="119.38" ry="13.27"/>
      <g>
        <path class="cls-1" d="m330.89,214.62h-20.58c-3.26,0-5.75,2.39-5.92,5.68v.12s0,75.07,0,75.07c0,10.97-.98,14.39-1.4,15.36l-.07.17c-.74,1.91-2.12,3.42-4.28,4.65-2.62,1.55-5.46,2.3-8.68,2.3-5.69,0-9.52-2.11-12.04-6.65-.49-1.26-1.25-4.47-1.25-12.38v-77.55c0-1.06-.13-1.98-.38-2.73-.79-2.6-3.11-3.78-4.85-3.99l-.27-.03h-22l-.36.06c-2.14.34-4.63,2.16-4.63,6.13v71.76c0,15.15,1.64,25.91,5.01,32.9,3.14,7.17,8.55,13.03,16.07,17.43,7.4,4.66,15.91,7.01,25.31,7.01,7.48,0,14.06-1.29,19.57-3.82,5.68-2.36,10.85-6.06,15.4-11,4.53-4.99,7.55-10.23,8.94-15.46,1.67-5.71,2.48-14.57,2.48-27.07v-71.69c0-3.87-3.06-6.22-6.07-6.26Z"/>
        <path class="cls-1" d="m426.91,315.07l-.26-.03h-35.13l40.54-92.1c1.09-2.48.38-4.4-.14-5.33-1.33-2.37-3.78-2.86-4.5-2.96l-.29-.04h-69.14c-5.62,0-7.94,3.4-8.22,6.31l-.02.21v19.17l.02.22c.1,1.01.98,6.04,8.38,6.04h29.41l-40.48,91.31-.09.33c-.53,1.95-.17,3.94.99,5.45,2.14,2.8,5.86,2.8,7.08,2.8h69.13c7.59,0,8.88-4.7,9.09-6.14l.05-.33v-16.82c-.01-5.43-3.46-7.76-6.41-8.11Z"/>
        <path class="cls-1" d="m230.34,314.88h-.17s-29.16-.01-29.16-.01v-90.81c0-7.46-4.73-9.56-6.18-10.02l-.67-.21h-17.72c-3.87.12-8.03,2.91-8.03,8.75v116.88l.02.19c.26,2.96,2.56,5.95,7.07,5.96l54.16.7c3.6,0,5.65-2.62,5.82-5.2v-.14s0-19.8,0-19.8c0-4.04-2.66-6.08-5.14-6.27Z"/>
      </g>
    </g>
  </g>
  <g>
    <path class="cls-1" d="m168.41,396.01v-28.27c0-.29.21-.5.5-.5h3.85c.29,0,.5.21.5.5v24.38c0,.13.08.21.21.21h9.03c.29,0,.5.21.5.5v3.18c0,.29-.21.5-.5.5h-13.59c-.29,0-.5-.21-.5-.5Z"/>
    <path class="cls-1" d="m185.1,390.07v-8.49c0-4.01,2.8-6.77,7.44-6.77s7.49,2.76,7.49,6.77v8.49c0,4.14-2.8,6.77-7.49,6.77s-7.44-2.63-7.44-6.77Zm10.08-.38v-7.74c0-1.76-1.09-2.97-2.63-2.97s-2.59,1.21-2.59,2.97v7.74c0,1.76,1.05,2.97,2.59,2.97s2.63-1.21,2.63-2.97Z"/>
    <path class="cls-1" d="m213.57,375.15h3.85c.29,0,.5.21.5.5v20.07c0,5.77-2.13,9.87-10.75,9.37-.33-.04-.5-.25-.5-.54v-3.22c0-.33.21-.5.54-.46,4.93.13,5.85-2.01,5.85-5.6v-.46c0-.17-.13-.21-.25-.04-1.09,1.42-2.63,1.8-3.93,1.8-3.81,0-5.73-2.68-5.73-6.78v-8.2c0-4.22,2.01-6.77,5.73-6.77,1.34,0,2.89.42,3.93,1.8.13.17.25.13.25-.04v-.92c0-.29.21-.5.5-.5Zm-.5,14.3v-7.48c0-1.76-1-2.97-2.51-2.97s-2.55,1.21-2.55,2.97v7.48c0,1.71,1.05,2.93,2.55,2.93s2.51-1.21,2.51-2.93Z"/>
    <path class="cls-1" d="m221.39,369.46c0-1.8,1.21-3.01,2.93-3.01s2.93,1.21,2.93,3.01-1.17,3.01-2.93,3.01-2.93-1.21-2.93-3.01Zm.5,26.55v-20.37c0-.29.21-.5.5-.5h3.85c.29,0,.5.21.5.5v20.37c0,.29-.21.5-.5.5h-3.85c-.29,0-.5-.21-.5-.5Z"/>
    <path class="cls-1" d="m230.79,396.01v-28.27c0-.29.21-.5.5-.5h3.85c.29,0,.5.21.5.5v14.89c0,.21.17.21.25.04l4.56-7.19c.13-.25.33-.33.59-.33h4.01c.38,0,.5.29.29.63l-4.35,6.57c-.04.08-.08.21-.04.29l5.02,13.3c.13.38-.04.59-.42.59h-3.97c-.29,0-.46-.17-.54-.42l-3.09-9.45c-.04-.17-.17-.21-.25-.04l-1.97,2.93c-.04.08-.08.17-.08.25v6.23c0,.29-.21.5-.5.5h-3.85c-.29,0-.5-.21-.5-.5Z"/>
    <path class="cls-1" d="m267.42,375.15h3.85c.29,0,.5.21.5.5v20.37c0,.29-.21.5-.5.5h-3.85c-.29,0-.5-.21-.5-.5v-.92c0-.17-.13-.25-.25-.08-.92,1.38-2.3,1.8-3.89,1.8-3.14,0-5.69-1.76-5.69-6.23v-14.93c0-.29.21-.5.5-.5h3.85c.29,0,.5.21.5.5v13.88c0,2.09.84,3.14,2.43,3.14s2.55-1.26,2.55-3.35v-13.67c0-.29.21-.5.5-.5Z"/>
    <path class="cls-1" d="m290.25,381.79v14.22c0,.29-.21.5-.5.5h-3.85c-.29,0-.5-.21-.5-.5v-13.84c0-2.01-.88-3.18-2.43-3.18s-2.55,1.21-2.55,3.3v13.72c0,.29-.21.5-.5.5h-3.85c-.29,0-.5-.21-.5-.5v-20.37c0-.29.21-.5.5-.5h3.85c.29,0,.5.21.5.5v.84c0,.17.17.21.33,0,1.09-1.3,2.59-1.67,3.97-1.67,3.64,0,5.52,2.59,5.52,6.98Z"/>
    <path class="cls-1" d="m293.26,390.87v-.29c0-.29.21-.5.5-.5h3.6c.29,0,.5.13.5.33v.38c0,1.34,1.17,2.34,2.68,2.34s2.34-.96,2.34-2.22c0-1.8-2.01-2.43-3.97-3.22-2.26-.88-5.44-2.34-5.44-6.57,0-3.93,2.72-6.23,6.9-6.23s7.07,2.51,7.07,6.4c0,.29-.21.5-.5.5h-3.51c-.29,0-.5-.17-.5-.38v-.38c0-1.34-1-2.34-2.43-2.34-1.55,0-2.38,1.17-2.38,2.34,0,1.71,1.84,2.34,3.72,3.14,2.47,1,5.94,2.43,5.94,6.52,0,3.72-2.84,6.06-7.28,6.06s-7.23-2.3-7.23-5.9Z"/>
    <path class="cls-1" d="m324.58,387.65h-9.28c-.13,0-.21.08-.21.21v1.84c0,1.76,1.05,3.01,2.55,3.01,1.34,0,2.26-1,2.55-2.22.08-.29.25-.46.54-.42l3.76.25c.29.04.5.21.46.54-.42,3.72-2.89,5.98-7.32,5.98s-7.4-2.59-7.4-6.77v-8.49c0-4.01,2.8-6.77,7.4-6.77s7.44,2.76,7.44,6.77v5.56c0,.29-.21.5-.5.5Zm-9.49-5.69v1.84c0,.13.08.21.21.21h4.73c.13,0,.21-.08.21-.21v-1.84c0-1.76-1.05-2.97-2.59-2.97s-2.55,1.21-2.55,2.97Z"/>
    <path class="cls-1" d="m338.88,375.31c.25.17.29.38.25.63l-.67,3.89c-.04.38-.25.42-.59.29-.54-.17-1.34-.21-2.01-.04-1.55.21-2.63,1.97-2.63,4.06v11.88c0,.29-.21.5-.5.5h-3.85c-.29,0-.5-.21-.5-.5v-20.37c0-.29.21-.5.5-.5h3.85c.29,0,.5.21.5.5v1.92c0,.21.13.25.21.04.67-1.59,1.8-2.72,3.68-2.72.79,0,1.38.17,1.76.42Z"/>
    <path class="cls-1" d="m355.22,387.65h-9.28c-.13,0-.21.08-.21.21v1.84c0,1.76,1.05,3.01,2.55,3.01,1.34,0,2.26-1,2.55-2.22.08-.29.25-.46.54-.42l3.76.25c.29.04.5.21.46.54-.42,3.72-2.89,5.98-7.32,5.98s-7.4-2.59-7.4-6.77v-8.49c0-4.01,2.8-6.77,7.4-6.77s7.44,2.76,7.44,6.77v5.56c0,.29-.21.5-.5.5Zm-9.49-5.69v1.84c0,.13.08.21.21.21h4.73c.13,0,.21-.08.21-.21v-1.84c0-1.76-1.05-2.97-2.59-2.97s-2.55,1.21-2.55,2.97Z"/>
    <path class="cls-1" d="m369.52,375.31c.25.17.29.38.25.63l-.67,3.89c-.04.38-.25.42-.59.29-.54-.17-1.34-.21-2.01-.04-1.55.21-2.63,1.97-2.63,4.06v11.88c0,.29-.21.5-.5.5h-3.85c-.29,0-.5-.21-.5-.5v-20.37c0-.29.21-.5.5-.5h3.85c.29,0,.5.21.5.5v1.92c0,.21.13.25.21.04.67-1.59,1.8-2.72,3.68-2.72.79,0,1.38.17,1.76.42Z"/>
    <path class="cls-1" d="m379.6,396.01v-3.35c0-.21.04-.42.13-.63l9.37-20.36c.04-.13,0-.25-.13-.25h-8.87c-.29,0-.5-.21-.5-.5v-3.18c0-.29.21-.5.5-.5h13.72c.29,0,.5.21.5.5v3.35c0,.21-.04.42-.13.63l-9.37,20.36c-.04.13,0,.25.13.25h8.87c.29,0,.5.21.5.5v3.18c0,.29-.21.5-.5.5h-13.72c-.29,0-.5-.21-.5-.5Z"/>
    <path class="cls-1" d="m411.46,387.65h-9.28c-.13,0-.21.08-.21.21v1.84c0,1.76,1.05,3.01,2.55,3.01,1.34,0,2.26-1,2.55-2.22.08-.29.25-.46.54-.42l3.76.25c.29.04.5.21.46.54-.42,3.72-2.89,5.98-7.32,5.98s-7.4-2.59-7.4-6.77v-8.49c0-4.01,2.8-6.77,7.4-6.77s7.44,2.76,7.44,6.77v5.56c0,.29-.21.5-.5.5Zm-9.49-5.69v1.84c0,.13.08.21.21.21h4.73c.13,0,.21-.08.21-.21v-1.84c0-1.76-1.05-2.97-2.59-2.97s-2.55,1.21-2.55,2.97Z"/>
    <path class="cls-1" d="m414.97,369.46c0-1.8,1.21-3.01,2.93-3.01s2.93,1.21,2.93,3.01-1.17,3.01-2.93,3.01-2.93-1.21-2.93-3.01Zm.5,26.55v-20.37c0-.29.21-.5.5-.5h3.85c.29,0,.5.21.5.5v20.37c0,.29-.21.5-.5.5h-3.85c-.29,0-.5-.21-.5-.5Z"/>
    <path class="cls-1" d="m432.82,378.57h-2.59c-.13,0-.21.08-.21.21v10.96c0,2.05.79,2.59,2.17,2.55h.29c.29,0,.5.21.5.5v3.22c0,.29-.21.5-.5.5h-1.42c-3.39,0-5.73-.84-5.73-4.98v-12.75c0-.13-.08-.21-.21-.21h-1.46c-.29,0-.5-.21-.5-.5v-2.43c0-.29.21-.5.5-.5h1.46c.13,0,.21-.08.21-.21v-4.6c0-.29.21-.5.5-.5h3.68c.29,0,.5.21.5.5v4.6c0,.13.08.21.21.21h2.59c.29,0,.5.21.5.5v2.43c0,.29-.21.5-.5.5Z"/>
  </g>
</svg>